<?xml version="1.0" standalone="no"?>
<!DOCTYPE svg PUBLIC "-//W3C//DTD SVG 1.1//EN"
"http://www.w3.org/Graphics/SVG/1.1/DTD/svg11.dtd">
<svg id="svg" version="1.1" baseProfile="full" xmlns="http://www.w3.org/2000/svg" viewBox="0 0 600 600">
  <polygon points="143,78 230,28 316,78 316,178 230,228 143,178" style="fill:#bebfbf; stroke:#bebfbf; stroke-width:1"></polygon><polygon points="241,248 328,198 414,248 414,348 328,398 241,348" style="fill:#fc0; stroke:#fc0; stroke-width:1"></polygon><polygon points="45,248 132,198 218,248 218,348 132,398 45,348" style="fill:#bebfbf; stroke:#bebfbf; stroke-width:1"></polygon><polygon points="143,418 230,368 316,418 316,518 230,568 143,518" style="fill:#bebfbf; stroke:#bebfbf; stroke-width:1"></polygon><polygon points="341,418 428,368 514,418 514,518 428,568 341,518" style="fill:#bebfbf; stroke:#bebfbf; stroke-width:1"></polygon><polygon points="341,78 428,28 514,78 514,178 428,228 341,178" style="fill:#bebfbf; stroke:#bebfbf; stroke-width:1"></polygon></svg>